<?xml version="1.0" encoding="UTF-8"?>
<svg width="173px" height="174px" viewBox="0 0 173 174" version="1.1" xmlns="http://www.w3.org/2000/svg" xmlns:xlink="http://www.w3.org/1999/xlink">
    <!-- Generator: Sketch 53.2 (72643) - https://sketchapp.com -->
    <title>ls</title>
    <desc>Created with Sketch.</desc>
    <defs>
        <path d="M81.75,163.75 C37.0149353,163.75 0.75,127.485065 0.75,82.75 C0.75,38.0149353 37.0149353,1.75 81.75,1.75 C126.485065,1.75 162.75,38.0149353 162.75,82.75 C162.75,127.485065 126.485065,163.75 81.75,163.75 Z M82.25,124.75 C105.169817,124.75 123.75,106.169817 123.75,83.25 C123.75,60.3301829 105.169817,41.75 82.25,41.75 C59.3301829,41.75 40.75,60.3301829 40.75,83.25 C40.75,106.169817 59.3301829,124.75 82.25,124.75 Z" id="path-1"></path>
        <filter x="-1.2%" y="-1.2%" width="102.5%" height="102.5%" filterUnits="objectBoundingBox" id="filter-2">
            <feOffset dx="3" dy="-4" in="SourceAlpha" result="shadowOffsetInner1"></feOffset>
            <feComposite in="shadowOffsetInner1" in2="SourceAlpha" operator="arithmetic" k2="-1" k3="1" result="shadowInnerInner1"></feComposite>
            <feColorMatrix values="0 0 0 0 0   0 0 0 0 0   0 0 0 0 0  0 0 0 0.172202797 0" type="matrix" in="shadowInnerInner1"></feColorMatrix>
        </filter>
    </defs>
    <g id="Page-1" stroke="none" stroke-width="1" fill="none" fill-rule="evenodd">
        <g id="ls" transform="translate(-7.862476, -17.737185)">
            <path d="M89.7801101,191.084075 C45.0450454,191.084075 8.78011013,154.81914 8.78011013,110.084075 C8.78011013,65.3490107 45.0450454,29.0840755 89.7801101,29.0840755 C134.515175,29.0840755 170.78011,65.3490107 170.78011,110.084075 C170.78011,154.81914 134.515175,191.084075 89.7801101,191.084075 Z M90.2801101,152.084075 C113.199927,152.084075 131.78011,133.503893 131.78011,110.584075 C131.78011,87.6642583 113.199927,69.0840755 90.2801101,69.0840755 C67.360293,69.0840755 48.7801101,87.6642583 48.7801101,110.584075 C48.7801101,133.503893 67.360293,152.084075 90.2801101,152.084075 Z" id="Shadow" fill="#338BAF"></path>
            <g id="Lifesaver" transform="translate(99.000000, 99.000000) rotate(-13.000000) translate(-99.000000, -99.000000) translate(17.000000, 17.000000)">
                <path d="M81.75,163.75 C37.0149353,163.75 0.75,127.485065 0.75,82.75 C0.75,38.0149353 37.0149353,1.75 81.75,1.75 C126.485065,1.75 162.75,38.0149353 162.75,82.75 C162.75,127.485065 126.485065,163.75 81.75,163.75 Z M82.25,124.75 C105.169817,124.75 123.75,106.169817 123.75,83.25 C123.75,60.3301829 105.169817,41.75 82.25,41.75 C59.3301829,41.75 40.75,60.3301829 40.75,83.25 C40.75,106.169817 59.3301829,124.75 82.25,124.75 Z" id="Combined-Shape-Copy" fill="#FDF0DC"></path>
                <path d="M61.75,4.25 C68.3057082,1.97559269 74.5835623,0.838389042 80.5835623,0.838389042 C86.5835623,0.838389042 93.9723749,1.97559269 102.75,4.25 L95.75,44.25 C92.1276039,42.8667851 87.4830725,42.1751777 81.8164058,42.1751777 C76.1497391,42.1751777 71.6276039,42.8667851 68.25,44.25 L61.75,4.25 Z" id="Rectangle" fill="#922323"></path>
                <path d="M121.899902,65.8999023 C129.447754,63.7999674 136.22168,62.75 142.22168,62.75 C148.22168,62.75 155.114421,63.7999674 162.899902,65.8999023 L155.72168,104.75 C152.055013,103.102941 147.388346,102.279412 141.72168,102.279412 C136.055013,102.279412 131.555013,103.102941 128.22168,104.75 L121.899902,65.8999023 Z" id="Rectangle-Copy-2" fill="#922323" transform="translate(142.399902, 83.750000) rotate(-270.000000) translate(-142.399902, -83.750000) "></path>
                <path d="M121.592471,65.1058339 C129.550231,63.3303235 136.529111,62.4425684 142.529111,62.4425684 C148.529111,62.4425684 155.421852,63.4925358 163.207334,65.5924707 L156.029111,104.442568 C152.333621,103.251359 147.652543,102.655754 141.985876,102.655754 C136.319209,102.655754 131.833621,103.251359 128.529111,104.442568 L121.592471,65.1058339 Z" id="Rectangle-Copy-4" fill="#922323" transform="translate(142.399902, 83.442568) rotate(-270.000000) translate(-142.399902, -83.442568) "></path>
                <path d="M61.75,124.114084 C68.9645182,122.680815 75.5717773,121.964181 81.5717773,121.964181 C87.5717773,121.964181 94.4645182,122.680815 102.25,124.114084 L95.0455943,163.377798 C91.361328,162.062511 86.739284,161.33753 81.1794623,161.202853 C75.6196406,161.068176 71.147355,161.917225 67.7626057,163.75 L61.75,124.114084 Z" id="Rectangle-Copy-5" fill="#922323" transform="translate(82.000000, 142.857091) rotate(-180.000000) translate(-82.000000, -142.857091) "></path>
                <path d="M1.42460788,64.0903563 C8.81640029,62.3926761 15.5122965,61.5438359 21.5122965,61.5438359 C27.5122965,61.5438359 34.4828543,62.4689132 42.42397,64.3190679 L34.7750074,104.118482 C31.5223761,102.743503 27.0627271,102.056013 21.3960604,102.056013 C15.7293938,102.056013 11.0947132,102.86757 7.49201879,104.490685 L1.42460788,64.0903563 Z" id="Rectangle-Copy-6" fill="#922323" transform="translate(21.924289, 83.017260) rotate(-90.000000) translate(-21.924289, -83.017260) "></path>
                <g id="Combined-Shape-Copy-2" fill="black" fill-opacity="1">
                    <use filter="url(#filter-2)" xlink:href="#path-1"></use>
                </g>
            </g>
        </g>
    </g>
</svg>