<?xml version="1.0" encoding="UTF-8"?>
<svg width="120px" height="199px" viewBox="0 0 120 199" version="1.1" xmlns="http://www.w3.org/2000/svg" xmlns:xlink="http://www.w3.org/1999/xlink">
    <!-- Generator: Sketch 53.2 (72643) - https://sketchapp.com -->
    <title>Sea</title>
    <desc>Created with Sketch.</desc>
    <g id="Page-1" stroke="none" stroke-width="1" fill="none" fill-rule="evenodd">
        <g id="Sea" transform="translate(-0.000000, 1.000000)">
            <g id="Boat" transform="translate(0.000000, 0.000000)">
                <path d="M53.8942101,2 C80.3733324,33.3884991 97.1660598,64.930471 104.272392,96.6259157 C111.378725,128.32136 107.418034,161.779389 92.3903187,197 L15.3981014,198 C0.227367603,162.75061 -3.73332358,128.959249 3.51602787,96.6259157 C7.92117908,76.9781964 21.5825031,44.7695578 44.5,2.84217094e-14 L53.8942101,2 Z" id="Shadow" fill-opacity="0.1" fill="#000000" transform="translate(53.847360, 99.000000) scale(-1, 1) translate(-53.847360, -99.000000) "></path>
                <path d="M63.8942101,2 C90.3733324,33.3884991 107.16606,64.930471 114.272392,96.6259157 C121.378725,128.32136 117.418034,161.446055 102.390319,196 L25.3981014,196 C10.2273676,162.083944 6.26667642,128.959249 13.5160279,96.6259157 C20.7653793,64.2925824 37.5581067,32.7506105 63.8942101,2 Z" id="Inside-right" fill="#DCCEC8" transform="translate(63.847360, 99.000000) scale(-1, 1) translate(-63.847360, -99.000000) "></path>
                <path d="M55,3 C84.0752623,33.7218324 102.16606,64.930471 109.272392,96.6259157 C116.378725,128.32136 112.454594,161.946055 97.5,197.5 L20.5,197.5 C7.91731522,162.833333 5.25064856,129.333333 12.5,97 C19.7493514,64.6666667 33.9160181,33.3333333 55,3 Z" id="Outside-left" fill="#E2D5CF" transform="translate(60.615599, 100.250000) scale(-1, 1) translate(-60.615599, -100.250000) "></path>
                <path d="M63.8942101,2 C90.3733324,33.3884991 107.16606,64.930471 114.272392,96.6259157 C121.378725,128.32136 117.418034,161.446055 102.390319,196 L25.3981014,196 C10.2273676,162.083944 6.26667642,128.959249 13.5160279,96.6259157 C20.7653793,64.2925824 37.5581067,32.7506105 63.8942101,2 Z" id="Deck-Shadow" fill="#A88A7E" transform="translate(63.847360, 99.000000) scale(-1, 1) translate(-63.847360, -99.000000) "></path>
                <path d="M46.3822792,51.0292969 C54.8028804,71.7359539 60.0995848,86.9348268 62.2723923,96.6259157 C69.3787248,128.32136 65.4180336,160.112722 50.3903187,192 L11.9873047,192 L10.1266231,50.9439832 L46.3822792,51.0292969 Z" id="Deck-left" fill="#CBAA9D" transform="translate(37.910671, 121.471992) scale(-1, 1) translate(-37.910671, -121.471992) "></path>
                <path d="M103.89421,192 L65.3981014,192 C50.2273676,160.75061 46.2666764,128.959249 53.5160279,96.6259157 C56.8459499,81.7739006 62.1894655,67.0888578 69.5465749,52.5707874 C69.7451763,52.1788795 70.0926378,51.6118741 70.5889592,50.8697715 L104.485619,50.9495342 L103.89421,192 Z" id="Deck-right" fill="#CBAA9D" transform="translate(77.242810, 121.434886) scale(-1, 1) translate(-77.242810, -121.434886) "></path>
                <polygon id="Top-Deck" fill="#E0D1CB" transform="translate(63.750000, 25.500000) scale(-1, 1) translate(-63.750000, -25.500000) " points="63.8942101 2 96.5 49 31 49"></polygon>
                <path d="M94,2 L98,6 C90.132926,16.2199086 84.4662594,24.0532419 81,29.5 C77.5337406,34.9467581 73.7004073,41.4467581 69.5,49 L62,49 C63.689423,45.39821 66.8560897,40.0648767 71.5,33 C76.1439103,25.9351233 83.6439103,15.60179 94,2 Z" id="Top-Deck-Shadow" fill="#D0BDB5" transform="translate(80.000000, 25.500000) scale(-1, 1) translate(-80.000000, -25.500000) "></path>
                <path d="M63.8942101,2 C90.3733324,33.3884991 107.16606,64.930471 114.272392,96.6259157 C121.378725,128.32136 117.418034,161.446055 102.390319,196 L25.3981014,196 C10.2273676,162.083944 6.26667642,128.959249 13.5160279,96.6259157 C20.7653793,64.2925824 37.5581067,32.7506105 63.8942101,2 Z" id="Rim" stroke="#F2E8E4" stroke-width="3" transform="translate(63.847360, 99.000000) scale(-1, 1) translate(-63.847360, -99.000000) "></path>
            </g>
        </g>
    </g>
</svg>